<mxfile host="app.diagrams.net" agent="Mozilla/5.0 (Windows NT 10.0; Win64; x64; rv:133.0) Gecko/20100101 Firefox/133.0" version="25.0.3">
  <diagram name="Diagrama de Clases" id="GMcrv2BQGEunCVWocYtt">
    <mxGraphModel dx="999" dy="530" grid="1" gridSize="10" guides="1" tooltips="1" connect="1" arrows="1" fold="1" page="1" pageScale="1" pageWidth="850" pageHeight="1100" math="0" shadow="0">
      <root>
        <mxCell id="0" />
        <mxCell id="1" parent="0" />
        <mxCell id="RHtpvEdr-hTl34zIeXN4-35" value="Usuario&lt;span style=&quot;white-space: pre;&quot;&gt;&#x9;&lt;/span&gt;" style="swimlane;fontStyle=0;childLayout=stackLayout;horizontal=1;startSize=26;fillColor=none;horizontalStack=0;resizeParent=1;resizeParentMax=0;resizeLast=0;collapsible=1;marginBottom=0;whiteSpace=wrap;html=1;" vertex="1" parent="1">
          <mxGeometry x="30" y="100" width="190" height="358" as="geometry">
            <mxRectangle x="20" y="70" width="90" height="30" as="alternateBounds" />
          </mxGeometry>
        </mxCell>
        <mxCell id="RHtpvEdr-hTl34zIeXN4-36" value="- IdUsuario: Int" style="text;strokeColor=none;fillColor=none;align=left;verticalAlign=top;spacingLeft=4;spacingRight=4;overflow=hidden;rotatable=0;points=[[0,0.5],[1,0.5]];portConstraint=eastwest;whiteSpace=wrap;html=1;" vertex="1" parent="RHtpvEdr-hTl34zIeXN4-35">
          <mxGeometry y="26" width="190" height="26" as="geometry" />
        </mxCell>
        <mxCell id="RHtpvEdr-hTl34zIeXN4-37" value="- Nombre: String" style="text;strokeColor=none;fillColor=none;align=left;verticalAlign=top;spacingLeft=4;spacingRight=4;overflow=hidden;rotatable=0;points=[[0,0.5],[1,0.5]];portConstraint=eastwest;whiteSpace=wrap;html=1;" vertex="1" parent="RHtpvEdr-hTl34zIeXN4-35">
          <mxGeometry y="52" width="190" height="26" as="geometry" />
        </mxCell>
        <mxCell id="RHtpvEdr-hTl34zIeXN4-41" value="- Apellido P: String" style="text;strokeColor=none;fillColor=none;align=left;verticalAlign=top;spacingLeft=4;spacingRight=4;overflow=hidden;rotatable=0;points=[[0,0.5],[1,0.5]];portConstraint=eastwest;whiteSpace=wrap;html=1;" vertex="1" parent="RHtpvEdr-hTl34zIeXN4-35">
          <mxGeometry y="78" width="190" height="26" as="geometry" />
        </mxCell>
        <mxCell id="RHtpvEdr-hTl34zIeXN4-42" value="- Apellido M: String" style="text;strokeColor=none;fillColor=none;align=left;verticalAlign=top;spacingLeft=4;spacingRight=4;overflow=hidden;rotatable=0;points=[[0,0.5],[1,0.5]];portConstraint=eastwest;whiteSpace=wrap;html=1;" vertex="1" parent="RHtpvEdr-hTl34zIeXN4-35">
          <mxGeometry y="104" width="190" height="26" as="geometry" />
        </mxCell>
        <mxCell id="RHtpvEdr-hTl34zIeXN4-43" value="- Direccion: String" style="text;strokeColor=none;fillColor=none;align=left;verticalAlign=top;spacingLeft=4;spacingRight=4;overflow=hidden;rotatable=0;points=[[0,0.5],[1,0.5]];portConstraint=eastwest;whiteSpace=wrap;html=1;" vertex="1" parent="RHtpvEdr-hTl34zIeXN4-35">
          <mxGeometry y="130" width="190" height="26" as="geometry" />
        </mxCell>
        <mxCell id="RHtpvEdr-hTl34zIeXN4-44" value="- Telefono: String" style="text;strokeColor=none;fillColor=none;align=left;verticalAlign=top;spacingLeft=4;spacingRight=4;overflow=hidden;rotatable=0;points=[[0,0.5],[1,0.5]];portConstraint=eastwest;whiteSpace=wrap;html=1;" vertex="1" parent="RHtpvEdr-hTl34zIeXN4-35">
          <mxGeometry y="156" width="190" height="26" as="geometry" />
        </mxCell>
        <mxCell id="RHtpvEdr-hTl34zIeXN4-45" value="- Email: String" style="text;strokeColor=none;fillColor=none;align=left;verticalAlign=top;spacingLeft=4;spacingRight=4;overflow=hidden;rotatable=0;points=[[0,0.5],[1,0.5]];portConstraint=eastwest;whiteSpace=wrap;html=1;" vertex="1" parent="RHtpvEdr-hTl34zIeXN4-35">
          <mxGeometry y="182" width="190" height="26" as="geometry" />
        </mxCell>
        <mxCell id="RHtpvEdr-hTl34zIeXN4-38" value="- ContraseÃ±a: String&lt;div&gt;&lt;br&gt;&lt;/div&gt;" style="text;strokeColor=none;fillColor=none;align=left;verticalAlign=top;spacingLeft=4;spacingRight=4;overflow=hidden;rotatable=0;points=[[0,0.5],[1,0.5]];portConstraint=eastwest;whiteSpace=wrap;html=1;" vertex="1" parent="RHtpvEdr-hTl34zIeXN4-35">
          <mxGeometry y="208" width="190" height="30" as="geometry" />
        </mxCell>
        <mxCell id="RHtpvEdr-hTl34zIeXN4-40" value="- Tipo: String&lt;div&gt;&lt;br&gt;&lt;/div&gt;" style="text;strokeColor=none;fillColor=none;align=left;verticalAlign=top;spacingLeft=4;spacingRight=4;overflow=hidden;rotatable=0;points=[[0,0.5],[1,0.5]];portConstraint=eastwest;whiteSpace=wrap;html=1;" vertex="1" parent="RHtpvEdr-hTl34zIeXN4-35">
          <mxGeometry y="238" width="190" height="30" as="geometry" />
        </mxCell>
        <mxCell id="RHtpvEdr-hTl34zIeXN4-51" value="" style="endArrow=none;dashed=1;html=1;rounded=0;entryX=1;entryY=0.033;entryDx=0;entryDy=0;entryPerimeter=0;" edge="1" parent="RHtpvEdr-hTl34zIeXN4-35" target="RHtpvEdr-hTl34zIeXN4-50">
          <mxGeometry width="50" height="50" relative="1" as="geometry">
            <mxPoint y="268" as="sourcePoint" />
            <mxPoint x="110" y="268" as="targetPoint" />
          </mxGeometry>
        </mxCell>
        <mxCell id="RHtpvEdr-hTl34zIeXN4-50" value="&lt;div&gt;+ Registrar(): void&lt;br&gt;&lt;/div&gt;&lt;div&gt;&lt;br&gt;&lt;/div&gt;" style="text;strokeColor=none;fillColor=none;align=left;verticalAlign=top;spacingLeft=4;spacingRight=4;overflow=hidden;rotatable=0;points=[[0,0.5],[1,0.5]];portConstraint=eastwest;whiteSpace=wrap;html=1;" vertex="1" parent="RHtpvEdr-hTl34zIeXN4-35">
          <mxGeometry y="268" width="190" height="30" as="geometry" />
        </mxCell>
        <mxCell id="RHtpvEdr-hTl34zIeXN4-52" value="&lt;div&gt;+ editar(): void&lt;br&gt;&lt;/div&gt;&lt;div&gt;&lt;br&gt;&lt;/div&gt;" style="text;strokeColor=none;fillColor=none;align=left;verticalAlign=top;spacingLeft=4;spacingRight=4;overflow=hidden;rotatable=0;points=[[0,0.5],[1,0.5]];portConstraint=eastwest;whiteSpace=wrap;html=1;" vertex="1" parent="RHtpvEdr-hTl34zIeXN4-35">
          <mxGeometry y="298" width="190" height="30" as="geometry" />
        </mxCell>
        <mxCell id="RHtpvEdr-hTl34zIeXN4-53" value="&lt;div&gt;+ eliminar(): void&lt;br&gt;&lt;/div&gt;&lt;div&gt;&lt;br&gt;&lt;/div&gt;" style="text;strokeColor=none;fillColor=none;align=left;verticalAlign=top;spacingLeft=4;spacingRight=4;overflow=hidden;rotatable=0;points=[[0,0.5],[1,0.5]];portConstraint=eastwest;whiteSpace=wrap;html=1;" vertex="1" parent="RHtpvEdr-hTl34zIeXN4-35">
          <mxGeometry y="328" width="190" height="30" as="geometry" />
        </mxCell>
        <mxCell id="RHtpvEdr-hTl34zIeXN4-46" value="Alumno" style="swimlane;fontStyle=0;childLayout=stackLayout;horizontal=1;startSize=26;fillColor=none;horizontalStack=0;resizeParent=1;resizeParentMax=0;resizeLast=0;collapsible=1;marginBottom=0;whiteSpace=wrap;html=1;" vertex="1" parent="1">
          <mxGeometry x="340" y="90" width="200" height="78" as="geometry" />
        </mxCell>
        <mxCell id="RHtpvEdr-hTl34zIeXN4-47" value="- Matricula: String" style="text;strokeColor=none;fillColor=none;align=left;verticalAlign=top;spacingLeft=4;spacingRight=4;overflow=hidden;rotatable=0;points=[[0,0.5],[1,0.5]];portConstraint=eastwest;whiteSpace=wrap;html=1;" vertex="1" parent="RHtpvEdr-hTl34zIeXN4-46">
          <mxGeometry y="26" width="200" height="26" as="geometry" />
        </mxCell>
        <mxCell id="RHtpvEdr-hTl34zIeXN4-54" value="" style="endArrow=none;dashed=1;html=1;rounded=0;" edge="1" parent="RHtpvEdr-hTl34zIeXN4-46">
          <mxGeometry width="50" height="50" relative="1" as="geometry">
            <mxPoint y="52" as="sourcePoint" />
            <mxPoint x="150" y="52" as="targetPoint" />
          </mxGeometry>
        </mxCell>
        <mxCell id="RHtpvEdr-hTl34zIeXN4-48" value="+ SolicitarPrestamo(): void" style="text;strokeColor=none;fillColor=none;align=left;verticalAlign=top;spacingLeft=4;spacingRight=4;overflow=hidden;rotatable=0;points=[[0,0.5],[1,0.5]];portConstraint=eastwest;whiteSpace=wrap;html=1;" vertex="1" parent="RHtpvEdr-hTl34zIeXN4-46">
          <mxGeometry y="52" width="200" height="26" as="geometry" />
        </mxCell>
        <mxCell id="RHtpvEdr-hTl34zIeXN4-55" value="Profesor" style="swimlane;fontStyle=0;childLayout=stackLayout;horizontal=1;startSize=26;fillColor=none;horizontalStack=0;resizeParent=1;resizeParentMax=0;resizeLast=0;collapsible=1;marginBottom=0;whiteSpace=wrap;html=1;" vertex="1" parent="1">
          <mxGeometry x="340" y="280" width="200" height="78" as="geometry" />
        </mxCell>
        <mxCell id="RHtpvEdr-hTl34zIeXN4-56" value="- Matricula: String" style="text;strokeColor=none;fillColor=none;align=left;verticalAlign=top;spacingLeft=4;spacingRight=4;overflow=hidden;rotatable=0;points=[[0,0.5],[1,0.5]];portConstraint=eastwest;whiteSpace=wrap;html=1;" vertex="1" parent="RHtpvEdr-hTl34zIeXN4-55">
          <mxGeometry y="26" width="200" height="26" as="geometry" />
        </mxCell>
        <mxCell id="RHtpvEdr-hTl34zIeXN4-57" value="" style="endArrow=none;dashed=1;html=1;rounded=0;" edge="1" parent="RHtpvEdr-hTl34zIeXN4-55">
          <mxGeometry width="50" height="50" relative="1" as="geometry">
            <mxPoint y="52" as="sourcePoint" />
            <mxPoint x="150" y="52" as="targetPoint" />
          </mxGeometry>
        </mxCell>
        <mxCell id="RHtpvEdr-hTl34zIeXN4-58" value="+ SolicitarPrestamo(): void" style="text;strokeColor=none;fillColor=none;align=left;verticalAlign=top;spacingLeft=4;spacingRight=4;overflow=hidden;rotatable=0;points=[[0,0.5],[1,0.5]];portConstraint=eastwest;whiteSpace=wrap;html=1;" vertex="1" parent="RHtpvEdr-hTl34zIeXN4-55">
          <mxGeometry y="52" width="200" height="26" as="geometry" />
        </mxCell>
        <mxCell id="RHtpvEdr-hTl34zIeXN4-59" value="Prestamo" style="swimlane;fontStyle=0;childLayout=stackLayout;horizontal=1;startSize=26;fillColor=none;horizontalStack=0;resizeParent=1;resizeParentMax=0;resizeLast=0;collapsible=1;marginBottom=0;whiteSpace=wrap;html=1;" vertex="1" parent="1">
          <mxGeometry x="650" y="176" width="190" height="156" as="geometry" />
        </mxCell>
        <mxCell id="RHtpvEdr-hTl34zIeXN4-60" value="- idPrestamo: Int " style="text;strokeColor=none;fillColor=none;align=left;verticalAlign=top;spacingLeft=4;spacingRight=4;overflow=hidden;rotatable=0;points=[[0,0.5],[1,0.5]];portConstraint=eastwest;whiteSpace=wrap;html=1;" vertex="1" parent="RHtpvEdr-hTl34zIeXN4-59">
          <mxGeometry y="26" width="190" height="26" as="geometry" />
        </mxCell>
        <mxCell id="RHtpvEdr-hTl34zIeXN4-61" value="- FechaPrestamo: Date" style="text;strokeColor=none;fillColor=none;align=left;verticalAlign=top;spacingLeft=4;spacingRight=4;overflow=hidden;rotatable=0;points=[[0,0.5],[1,0.5]];portConstraint=eastwest;whiteSpace=wrap;html=1;" vertex="1" parent="RHtpvEdr-hTl34zIeXN4-59">
          <mxGeometry y="52" width="190" height="26" as="geometry" />
        </mxCell>
        <mxCell id="RHtpvEdr-hTl34zIeXN4-62" value="- FechaDevolucion: Date" style="text;strokeColor=none;fillColor=none;align=left;verticalAlign=top;spacingLeft=4;spacingRight=4;overflow=hidden;rotatable=0;points=[[0,0.5],[1,0.5]];portConstraint=eastwest;whiteSpace=wrap;html=1;" vertex="1" parent="RHtpvEdr-hTl34zIeXN4-59">
          <mxGeometry y="78" width="190" height="26" as="geometry" />
        </mxCell>
        <mxCell id="RHtpvEdr-hTl34zIeXN4-64" value="" style="endArrow=none;dashed=1;html=1;rounded=0;entryX=1.011;entryY=1;entryDx=0;entryDy=0;entryPerimeter=0;" edge="1" parent="RHtpvEdr-hTl34zIeXN4-59" target="RHtpvEdr-hTl34zIeXN4-62">
          <mxGeometry width="50" height="50" relative="1" as="geometry">
            <mxPoint y="103" as="sourcePoint" />
            <mxPoint x="120" y="103" as="targetPoint" />
          </mxGeometry>
        </mxCell>
        <mxCell id="RHtpvEdr-hTl34zIeXN4-63" value="+ Registrar(): void" style="text;strokeColor=none;fillColor=none;align=left;verticalAlign=top;spacingLeft=4;spacingRight=4;overflow=hidden;rotatable=0;points=[[0,0.5],[1,0.5]];portConstraint=eastwest;whiteSpace=wrap;html=1;" vertex="1" parent="RHtpvEdr-hTl34zIeXN4-59">
          <mxGeometry y="104" width="190" height="26" as="geometry" />
        </mxCell>
        <mxCell id="RHtpvEdr-hTl34zIeXN4-65" value="+ Devolver(): void" style="text;strokeColor=none;fillColor=none;align=left;verticalAlign=top;spacingLeft=4;spacingRight=4;overflow=hidden;rotatable=0;points=[[0,0.5],[1,0.5]];portConstraint=eastwest;whiteSpace=wrap;html=1;" vertex="1" parent="RHtpvEdr-hTl34zIeXN4-59">
          <mxGeometry y="130" width="190" height="26" as="geometry" />
        </mxCell>
        <mxCell id="RHtpvEdr-hTl34zIeXN4-66" value="Libro" style="swimlane;fontStyle=0;childLayout=stackLayout;horizontal=1;startSize=26;fillColor=none;horizontalStack=0;resizeParent=1;resizeParentMax=0;resizeLast=0;collapsible=1;marginBottom=0;whiteSpace=wrap;html=1;" vertex="1" parent="1">
          <mxGeometry x="370" y="440" width="200" height="208" as="geometry" />
        </mxCell>
        <mxCell id="RHtpvEdr-hTl34zIeXN4-67" value="- IdLibro: Int" style="text;strokeColor=none;fillColor=none;align=left;verticalAlign=top;spacingLeft=4;spacingRight=4;overflow=hidden;rotatable=0;points=[[0,0.5],[1,0.5]];portConstraint=eastwest;whiteSpace=wrap;html=1;" vertex="1" parent="RHtpvEdr-hTl34zIeXN4-66">
          <mxGeometry y="26" width="200" height="26" as="geometry" />
        </mxCell>
        <mxCell id="RHtpvEdr-hTl34zIeXN4-68" value="- Titulo: String" style="text;strokeColor=none;fillColor=none;align=left;verticalAlign=top;spacingLeft=4;spacingRight=4;overflow=hidden;rotatable=0;points=[[0,0.5],[1,0.5]];portConstraint=eastwest;whiteSpace=wrap;html=1;" vertex="1" parent="RHtpvEdr-hTl34zIeXN4-66">
          <mxGeometry y="52" width="200" height="26" as="geometry" />
        </mxCell>
        <mxCell id="RHtpvEdr-hTl34zIeXN4-69" value="- Autor: String" style="text;strokeColor=none;fillColor=none;align=left;verticalAlign=top;spacingLeft=4;spacingRight=4;overflow=hidden;rotatable=0;points=[[0,0.5],[1,0.5]];portConstraint=eastwest;whiteSpace=wrap;html=1;" vertex="1" parent="RHtpvEdr-hTl34zIeXN4-66">
          <mxGeometry y="78" width="200" height="26" as="geometry" />
        </mxCell>
        <mxCell id="RHtpvEdr-hTl34zIeXN4-70" value="- Disponible: boolean" style="text;strokeColor=none;fillColor=none;align=left;verticalAlign=top;spacingLeft=4;spacingRight=4;overflow=hidden;rotatable=0;points=[[0,0.5],[1,0.5]];portConstraint=eastwest;whiteSpace=wrap;html=1;" vertex="1" parent="RHtpvEdr-hTl34zIeXN4-66">
          <mxGeometry y="104" width="200" height="26" as="geometry" />
        </mxCell>
        <mxCell id="RHtpvEdr-hTl34zIeXN4-72" value="" style="endArrow=none;dashed=1;html=1;rounded=0;entryX=1.01;entryY=-0.077;entryDx=0;entryDy=0;entryPerimeter=0;" edge="1" parent="RHtpvEdr-hTl34zIeXN4-66" target="RHtpvEdr-hTl34zIeXN4-71">
          <mxGeometry width="50" height="50" relative="1" as="geometry">
            <mxPoint y="129" as="sourcePoint" />
            <mxPoint x="120" y="129" as="targetPoint" />
          </mxGeometry>
        </mxCell>
        <mxCell id="RHtpvEdr-hTl34zIeXN4-71" value="+ registrar(): void" style="text;strokeColor=none;fillColor=none;align=left;verticalAlign=top;spacingLeft=4;spacingRight=4;overflow=hidden;rotatable=0;points=[[0,0.5],[1,0.5]];portConstraint=eastwest;whiteSpace=wrap;html=1;" vertex="1" parent="RHtpvEdr-hTl34zIeXN4-66">
          <mxGeometry y="130" width="200" height="26" as="geometry" />
        </mxCell>
        <mxCell id="RHtpvEdr-hTl34zIeXN4-73" value="+ editar(): void" style="text;strokeColor=none;fillColor=none;align=left;verticalAlign=top;spacingLeft=4;spacingRight=4;overflow=hidden;rotatable=0;points=[[0,0.5],[1,0.5]];portConstraint=eastwest;whiteSpace=wrap;html=1;" vertex="1" parent="RHtpvEdr-hTl34zIeXN4-66">
          <mxGeometry y="156" width="200" height="26" as="geometry" />
        </mxCell>
        <mxCell id="RHtpvEdr-hTl34zIeXN4-74" value="+ eliminar(): void" style="text;strokeColor=none;fillColor=none;align=left;verticalAlign=top;spacingLeft=4;spacingRight=4;overflow=hidden;rotatable=0;points=[[0,0.5],[1,0.5]];portConstraint=eastwest;whiteSpace=wrap;html=1;" vertex="1" parent="RHtpvEdr-hTl34zIeXN4-66">
          <mxGeometry y="182" width="200" height="26" as="geometry" />
        </mxCell>
        <mxCell id="RHtpvEdr-hTl34zIeXN4-75" style="edgeStyle=orthogonalEdgeStyle;rounded=0;orthogonalLoop=1;jettySize=auto;html=1;exitX=1;exitY=0.5;exitDx=0;exitDy=0;entryX=-0.015;entryY=0.038;entryDx=0;entryDy=0;entryPerimeter=0;" edge="1" parent="1" source="RHtpvEdr-hTl34zIeXN4-50" target="RHtpvEdr-hTl34zIeXN4-47">
          <mxGeometry relative="1" as="geometry" />
        </mxCell>
        <mxCell id="RHtpvEdr-hTl34zIeXN4-76" style="edgeStyle=orthogonalEdgeStyle;rounded=0;orthogonalLoop=1;jettySize=auto;html=1;exitX=1;exitY=0.5;exitDx=0;exitDy=0;entryX=0;entryY=0.09;entryDx=0;entryDy=0;entryPerimeter=0;" edge="1" parent="1" source="RHtpvEdr-hTl34zIeXN4-52" target="RHtpvEdr-hTl34zIeXN4-55">
          <mxGeometry relative="1" as="geometry" />
        </mxCell>
        <mxCell id="RHtpvEdr-hTl34zIeXN4-77" style="edgeStyle=orthogonalEdgeStyle;rounded=0;orthogonalLoop=1;jettySize=auto;html=1;exitX=1;exitY=0.25;exitDx=0;exitDy=0;entryX=-0.016;entryY=0.083;entryDx=0;entryDy=0;entryPerimeter=0;" edge="1" parent="1" source="RHtpvEdr-hTl34zIeXN4-35" target="RHtpvEdr-hTl34zIeXN4-59">
          <mxGeometry relative="1" as="geometry" />
        </mxCell>
        <mxCell id="RHtpvEdr-hTl34zIeXN4-78" style="edgeStyle=orthogonalEdgeStyle;rounded=0;orthogonalLoop=1;jettySize=auto;html=1;exitX=1;exitY=0.5;exitDx=0;exitDy=0;entryX=0.689;entryY=0.962;entryDx=0;entryDy=0;entryPerimeter=0;" edge="1" parent="1" source="RHtpvEdr-hTl34zIeXN4-69" target="RHtpvEdr-hTl34zIeXN4-65">
          <mxGeometry relative="1" as="geometry" />
        </mxCell>
      </root>
    </mxGraphModel>
  </diagram>
</mxfile>
